# xmcd
# 
# Track frame offsets:
#     180
#     14290
#     28168
#     41204
# 
# Disc length: 757
# 
# Revision: 0
# Processed by: cddbd v1.5.2PL0 Copyright (c) Steve Scherf et al.
# Submitted via: fre:ac v1.0.17
# 
DISCID=2d02f304
DTITLE=Hufnagel - Rio Verde
DYEAR=1996
DGENRE=Country
TTITLE0=10 000 Meilen
TTITLE1=Rio Verde
TTITLE2=Wir wollen Country Music hören
TTITLE3=Small Town World
EXTD=
EXTT0=
EXTT1=
EXTT2=
EXTT3=
PLAYORDER=
